<svg width="318" height="58" viewBox="0 0 318 58" fill="none" xmlns="http://www.w3.org/2000/svg">
<g filter="url(#filter0_d_246_97)">
<path d="M19.5833 49.8123C14.875 49.8123 11.1354 48.5102 8.375 45.8956C5.625 43.2706 4.16667 39.4685 4 34.4789C4 34.1612 4 33.7237 4 33.1664C4 32.6143 4 32.1977 4 31.9164C4.16667 28.7237 4.88021 25.9945 6.14583 23.7289C7.40625 21.4529 9.1875 19.7081 11.4792 18.4998C13.7708 17.2914 16.4479 16.6873 19.5208 16.6873C22.9896 16.6873 25.875 17.3956 28.1667 18.8123C30.4583 20.2185 32.1875 22.1404 33.3542 24.5831C34.5208 27.0154 35.1042 29.807 35.1042 32.9581V34.3539C35.1042 34.7706 34.9583 35.1352 34.6667 35.4373C34.3854 35.7445 34.0208 35.8956 33.5625 35.8956H13.5625C13.5625 35.8956 13.5625 35.9529 13.5625 36.0623C13.5625 36.1612 13.5625 36.2498 13.5625 36.3331C13.6042 37.6404 13.8438 38.8331 14.2917 39.9164C14.75 40.9998 15.4167 41.8695 16.2917 42.5206C17.1771 43.1768 18.2552 43.4998 19.5208 43.4998C20.5052 43.4998 21.3229 43.3487 21.9792 43.0414C22.6302 42.7393 23.1719 42.3904 23.6042 41.9998C24.0312 41.6143 24.3438 41.2706 24.5417 40.9789C24.9167 40.5362 25.2135 40.2654 25.4375 40.1664C25.6562 40.057 26 39.9998 26.4583 39.9998H32.9583C33.3177 39.9998 33.6302 40.1248 33.8958 40.3748C34.1719 40.6248 34.2917 40.932 34.25 41.2914C34.2083 41.9893 33.8646 42.8227 33.2292 43.7914C32.5885 44.7498 31.6562 45.6873 30.4375 46.6039C29.2135 47.5206 27.6927 48.2862 25.875 48.8956C24.0521 49.505 21.9583 49.8123 19.5833 49.8123ZM13.5625 30.2498H25.5208V30.0623C25.5208 28.6352 25.2812 27.3748 24.8125 26.2914C24.3542 25.2081 23.6719 24.3643 22.7708 23.7498C21.8646 23.1404 20.7812 22.8331 19.5208 22.8331C18.2552 22.8331 17.1771 23.1404 16.2917 23.7498C15.4167 24.3643 14.7396 25.2081 14.2708 26.2914C13.7969 27.3748 13.5625 28.6352 13.5625 30.0623V30.2498Z" fill="white"/>
<path d="M52.5828 49.2081C51.9682 49.2081 51.5099 49.057 51.2078 48.7498C50.9005 48.4477 50.6453 48.0831 50.437 47.6664L38.9161 19.2081C38.8328 19.0414 38.7911 18.8539 38.7911 18.6456C38.7911 18.2862 38.9213 17.9737 39.187 17.7081C39.4474 17.4477 39.7703 17.3123 40.1453 17.3123H46.0828C46.6245 17.3123 47.0255 17.4581 47.2911 17.7498C47.5516 18.031 47.7286 18.2862 47.812 18.5206L55.3536 38.7081L62.8953 18.5206C63.0203 18.2862 63.1974 18.031 63.437 17.7498C63.687 17.4581 64.0828 17.3123 64.6245 17.3123H70.562C70.937 17.3123 71.2547 17.4477 71.5203 17.7081C71.7807 17.9737 71.9161 18.2862 71.9161 18.6456C71.9161 18.8539 71.8953 19.0414 71.8536 19.2081L60.312 47.6664C60.1557 48.0831 59.9161 48.4477 59.5828 48.7498C59.2599 49.057 58.7703 49.2081 58.1036 49.2081H52.5828Z" fill="white"/>
<path d="M91.3762 49.8123C86.6679 49.8123 82.9283 48.5102 80.1679 45.8956C77.4179 43.2706 75.9596 39.4685 75.7929 34.4789C75.7929 34.1612 75.7929 33.7237 75.7929 33.1664C75.7929 32.6143 75.7929 32.1977 75.7929 31.9164C75.9596 28.7237 76.6731 25.9945 77.9387 23.7289C79.1992 21.4529 80.9804 19.7081 83.2721 18.4998C85.5637 17.2914 88.2408 16.6873 91.3137 16.6873C94.7825 16.6873 97.6679 17.3956 99.9596 18.8123C102.251 20.2185 103.98 22.1404 105.147 24.5831C106.314 27.0154 106.897 29.807 106.897 32.9581V34.3539C106.897 34.7706 106.751 35.1352 106.46 35.4373C106.178 35.7445 105.814 35.8956 105.355 35.8956H85.3554C85.3554 35.8956 85.3554 35.9529 85.3554 36.0623C85.3554 36.1612 85.3554 36.2498 85.3554 36.3331C85.3971 37.6404 85.6367 38.8331 86.0846 39.9164C86.5429 40.9998 87.2096 41.8695 88.0846 42.5206C88.97 43.1768 90.0481 43.4998 91.3137 43.4998C92.2981 43.4998 93.1158 43.3487 93.7721 43.0414C94.4231 42.7393 94.9648 42.3904 95.3971 41.9998C95.8242 41.6143 96.1367 41.2706 96.3346 40.9789C96.7096 40.5362 97.0064 40.2654 97.2304 40.1664C97.4492 40.057 97.7929 39.9998 98.2512 39.9998H104.751C105.111 39.9998 105.423 40.1248 105.689 40.3748C105.965 40.6248 106.085 40.932 106.043 41.2914C106.001 41.9893 105.657 42.8227 105.022 43.7914C104.381 44.7498 103.449 45.6873 102.23 46.6039C101.006 47.5206 99.4856 48.2862 97.6679 48.8956C95.845 49.505 93.7512 49.8123 91.3762 49.8123ZM85.3554 30.2498H97.3137V30.0623C97.3137 28.6352 97.0742 27.3748 96.6054 26.2914C96.1471 25.2081 95.4648 24.3643 94.5637 23.7498C93.6575 23.1404 92.5742 22.8331 91.3137 22.8331C90.0481 22.8331 88.97 23.1404 88.0846 23.7498C87.2096 24.3643 86.5325 25.2081 86.0637 26.2914C85.5898 27.3748 85.3554 28.6352 85.3554 30.0623V30.2498Z" fill="white"/>
<path d="M114.563 49.2081C114.157 49.2081 113.803 49.0727 113.501 48.7914C113.193 48.4998 113.042 48.1248 113.042 47.6664V18.8331C113.042 18.3904 113.193 18.031 113.501 17.7498C113.803 17.4581 114.157 17.3123 114.563 17.3123H120.584C121.027 17.3123 121.386 17.4581 121.667 17.7498C121.959 18.031 122.105 18.3904 122.105 18.8331V21.2289C123.173 19.9268 124.553 18.8435 126.251 17.9789C127.943 17.1195 129.98 16.6873 132.355 16.6873C134.772 16.6873 136.897 17.2289 138.73 18.3123C140.574 19.3956 142.006 20.9737 143.022 23.0414C144.048 25.1143 144.563 27.6195 144.563 30.5623V47.6664C144.563 48.1248 144.417 48.4998 144.126 48.7914C143.844 49.0727 143.485 49.2081 143.042 49.2081H136.542C136.084 49.2081 135.709 49.0727 135.417 48.7914C135.136 48.4998 135.001 48.1248 135.001 47.6664V30.9164C135.001 28.7498 134.48 27.0727 133.438 25.8748C132.397 24.6664 130.865 24.0623 128.855 24.0623C126.938 24.0623 125.417 24.6664 124.292 25.8748C123.167 27.0727 122.605 28.7498 122.605 30.9164V47.6664C122.605 48.1248 122.459 48.4998 122.167 48.7914C121.886 49.0727 121.522 49.2081 121.063 49.2081H114.563Z" fill="white"/>
<path d="M167.28 49.2081C164.738 49.2081 162.577 48.7915 160.801 47.9581C159.02 47.1144 157.66 45.8123 156.718 44.0623C155.785 42.3019 155.322 40.0935 155.322 37.4373V24.5415H150.53C150.072 24.5415 149.697 24.406 149.405 24.1248C149.124 23.8331 148.988 23.479 148.988 23.0623V18.8331C148.988 18.3904 149.124 18.031 149.405 17.7498C149.697 17.4581 150.072 17.3123 150.53 17.3123H155.322V7.1873C155.322 6.72896 155.473 6.36438 155.78 6.08313C156.082 5.79146 156.436 5.64563 156.843 5.64563H162.926C163.327 5.64563 163.665 5.79146 163.947 6.08313C164.238 6.36438 164.384 6.72896 164.384 7.1873V17.3123H172.051C172.509 17.3123 172.874 17.4581 173.155 17.7498C173.447 18.031 173.593 18.3904 173.593 18.8331V23.0623C173.593 23.479 173.447 23.8331 173.155 24.1248C172.874 24.406 172.509 24.5415 172.051 24.5415H164.384V36.6873C164.384 38.2446 164.665 39.4685 165.238 40.354C165.822 41.229 166.785 41.6665 168.134 41.6665H172.613C173.056 41.6665 173.426 41.8123 173.718 42.104C174.009 42.3852 174.155 42.7238 174.155 43.1248V47.6665C174.155 48.1248 174.009 48.4998 173.718 48.7915C173.426 49.0727 173.056 49.2081 172.613 49.2081H167.28Z" fill="white"/>
<path d="M190.707 49.2081C190.093 49.2081 189.635 49.057 189.332 48.7498C189.025 48.4477 188.77 48.0831 188.562 47.6664L177.041 19.2081C176.957 19.0414 176.916 18.8539 176.916 18.6456C176.916 18.2862 177.046 17.9737 177.312 17.7081C177.572 17.4477 177.895 17.3123 178.27 17.3123H184.207C184.749 17.3123 185.15 17.4581 185.416 17.7498C185.676 18.031 185.853 18.2862 185.937 18.5206L193.478 38.7081L201.02 18.5206C201.145 18.2862 201.322 18.031 201.562 17.7498C201.812 17.4581 202.207 17.3123 202.749 17.3123H208.687C209.062 17.3123 209.379 17.4477 209.645 17.7081C209.905 17.9737 210.041 18.2862 210.041 18.6456C210.041 18.8539 210.02 19.0414 209.978 19.2081L198.437 47.6664C198.28 48.0831 198.041 48.4477 197.707 48.7498C197.385 49.057 196.895 49.2081 196.228 49.2081H190.707Z" fill="white"/>
<path d="M216.73 49.2081C216.324 49.2081 215.97 49.0727 215.668 48.7914C215.36 48.4998 215.209 48.1248 215.209 47.6664V18.8331C215.209 18.3904 215.36 18.031 215.668 17.7498C215.97 17.4581 216.324 17.3123 216.73 17.3123H222.938C223.339 17.3123 223.678 17.4581 223.959 17.7498C224.251 18.031 224.397 18.3904 224.397 18.8331V47.6664C224.397 48.1248 224.251 48.4998 223.959 48.7914C223.678 49.0727 223.339 49.2081 222.938 49.2081H216.73ZM216.543 12.3956C216.136 12.3956 215.793 12.2602 215.501 11.9789C215.22 11.6873 215.084 11.3123 215.084 10.8539V5.89561C215.084 5.47894 215.22 5.11957 215.501 4.81228C215.793 4.51019 216.136 4.35394 216.543 4.35394H223.063C223.464 4.35394 223.819 4.51019 224.126 4.81228C224.428 5.11957 224.584 5.47894 224.584 5.89561V10.8539C224.584 11.3123 224.428 11.6873 224.126 11.9789C223.819 12.2602 223.464 12.3956 223.063 12.3956H216.543Z" fill="white"/>
<path d="M246.375 49.8123C241.667 49.8123 237.927 48.5102 235.167 45.8956C232.417 43.2706 230.959 39.4685 230.792 34.4789C230.792 34.1612 230.792 33.7237 230.792 33.1664C230.792 32.6143 230.792 32.1977 230.792 31.9164C230.959 28.7237 231.672 25.9945 232.938 23.7289C234.198 21.4529 235.979 19.7081 238.271 18.4998C240.563 17.2914 243.24 16.6873 246.313 16.6873C249.782 16.6873 252.667 17.3956 254.959 18.8123C257.25 20.2185 258.979 22.1404 260.146 24.5831C261.313 27.0154 261.896 29.807 261.896 32.9581V34.3539C261.896 34.7706 261.75 35.1352 261.459 35.4373C261.177 35.7445 260.813 35.8956 260.354 35.8956H240.354C240.354 35.8956 240.354 35.9529 240.354 36.0623C240.354 36.1612 240.354 36.2498 240.354 36.3331C240.396 37.6404 240.636 38.8331 241.084 39.9164C241.542 40.9998 242.209 41.8695 243.084 42.5206C243.969 43.1768 245.047 43.4998 246.313 43.4998C247.297 43.4998 248.115 43.3487 248.771 43.0414C249.422 42.7393 249.964 42.3904 250.396 41.9998C250.823 41.6143 251.136 41.2706 251.334 40.9789C251.709 40.5362 252.005 40.2654 252.229 40.1664C252.448 40.057 252.792 39.9998 253.25 39.9998H259.75C260.11 39.9998 260.422 40.1248 260.688 40.3748C260.964 40.6248 261.084 40.932 261.042 41.2914C261 41.9893 260.657 42.8227 260.021 43.7914C259.38 44.7498 258.448 45.6873 257.229 46.6039C256.005 47.5206 254.485 48.2862 252.667 48.8956C250.844 49.505 248.75 49.8123 246.375 49.8123ZM240.354 30.2498H252.313V30.0623C252.313 28.6352 252.073 27.3748 251.604 26.2914C251.146 25.2081 250.464 24.3643 249.563 23.7498C248.657 23.1404 247.573 22.8331 246.313 22.8331C245.047 22.8331 243.969 23.1404 243.084 23.7498C242.209 24.3643 241.532 25.2081 241.063 26.2914C240.589 27.3748 240.354 28.6352 240.354 30.0623V30.2498Z" fill="white"/>
<path d="M276.875 49.2081C276.291 49.2081 275.844 49.0727 275.541 48.7914C275.234 48.4998 275 48.1248 274.833 47.6664L266.062 19.2706C265.979 19.0623 265.937 18.8539 265.937 18.6456C265.937 18.2862 266.067 17.9737 266.333 17.7081C266.609 17.4477 266.927 17.3123 267.291 17.3123H272.75C273.25 17.3123 273.635 17.4581 273.916 17.7498C274.208 18.031 274.396 18.2862 274.479 18.5206L280.062 37.4373L286 18.6456C286.083 18.3695 286.276 18.0779 286.583 17.7706C286.901 17.4685 287.344 17.3123 287.916 17.3123H291.416C291.984 17.3123 292.422 17.4685 292.729 17.7706C293.031 18.0779 293.229 18.3695 293.312 18.6456L299.271 37.4373L304.854 18.5206C304.896 18.2862 305.052 18.031 305.333 17.7498C305.625 17.4581 306.031 17.3123 306.562 17.3123H312.021C312.396 17.3123 312.713 17.4477 312.979 17.7081C313.239 17.9737 313.375 18.2862 313.375 18.6456C313.375 18.8539 313.333 19.0623 313.25 19.2706L304.479 47.6664C304.312 48.1248 304.083 48.4998 303.791 48.7914C303.51 49.0727 303.067 49.2081 302.458 49.2081H297.729C297.156 49.2081 296.708 49.0727 296.375 48.7914C296.052 48.4998 295.812 48.1248 295.646 47.6664L289.687 29.5831L283.687 47.6664C283.521 48.1248 283.281 48.4998 282.979 48.7914C282.672 49.0727 282.208 49.2081 281.583 49.2081H276.875Z" fill="white"/>
<mask id="mask0_246_97" style="mask-type:luminance" maskUnits="userSpaceOnUse" x="212" y="0" width="15" height="15">
<path d="M212 0H226.917V14.9167H212V0Z" fill="white"/>
</mask>
<g mask="url(#mask0_246_97)">
<mask id="mask1_246_97" style="mask-type:luminance" maskUnits="userSpaceOnUse" x="212" y="0" width="15" height="15">
<path d="M219.458 0C215.339 0 212 3.33854 212 7.45833C212 11.5781 215.339 14.9167 219.458 14.9167C223.578 14.9167 226.917 11.5781 226.917 7.45833C226.917 3.33854 223.578 0 219.458 0Z" fill="white"/>
</mask>
<g mask="url(#mask1_246_97)">
<path d="M212 0H226.917V14.9167H212V0Z" fill="#FFBD59"/>
</g>
</g>
</g>
<defs>
<filter id="filter0_d_246_97" x="0" y="0" width="317.375" height="57.8123" filterUnits="userSpaceOnUse" color-interpolation-filters="sRGB">
<feFlood flood-opacity="0" result="BackgroundImageFix"/>
<feColorMatrix in="SourceAlpha" type="matrix" values="0 0 0 0 0 0 0 0 0 0 0 0 0 0 0 0 0 0 127 0" result="hardAlpha"/>
<feOffset dy="4"/>
<feGaussianBlur stdDeviation="2"/>
<feComposite in2="hardAlpha" operator="out"/>
<feColorMatrix type="matrix" values="0 0 0 0 0 0 0 0 0 0 0 0 0 0 0 0 0 0 0.25 0"/>
<feBlend mode="normal" in2="BackgroundImageFix" result="effect1_dropShadow_246_97"/>
<feBlend mode="normal" in="SourceGraphic" in2="effect1_dropShadow_246_97" result="shape"/>
</filter>
</defs>
</svg>
